# File created by Blade
# Date/Time:  Mon Sep 22 15:50:36 2014
# Frame Rate: 120.000 fps
#------------------------------------------------------
:FULLY-SPECIFIED
:DEGREES
3766
root 2.878290 37.036062 3.904786 1.978954 3.837115 3.340166
RightUpLeg 8.763644 -9.726832 -6.073035
RightLeg -4.997679 -0.000000 0.000000
RightFoot -14.444931 -17.819047 17.534763
RightToeBase 13.607494 -0.000000 -0.000000
LeftUpLeg 5.595722 -3.532054 -1.199561
LeftLeg -2.920941 -0.000000 0.000000
LeftFoot -9.624244 12.706575 -17.330088
LeftToeBase 7.869118 -0.000000 -0.000000
Spine -3.470774 19.157494 -0.728456
RightShoulder 4.774374 -29.519834 -15.643757
RightArm 12.452276 -22.265707 65.107510
RightForeArm 12.853012 -0.000000 45.233759
RightHand 3.123751 -0.000000 -0.840938
RightHandThumb1 -24.326973 -0.000000 -32.862282
LeftShoulder -31.710214 30.676515 7.496121
LeftArm 42.896730 -70.420586 -69.049881
LeftForeArm -48.056510 -0.000000 106.260213
LeftHand -13.157027 -0.000000 19.681572
LeftHandThumb1 -26.253704 0.000000 33.147579
Head 21.204832 1.653283 9.052501
3767
root 2.875212 37.037279 3.898584 1.955395 3.980702 3.362538
RightUpLeg 8.795034 -9.748626 -6.076380
RightLeg -4.975922 -0.000000 0.000000
RightFoot -14.503395 -17.943951 17.566134
RightToeBase 13.617044 -0.000000 -0.000000
LeftUpLeg 5.582818 -3.598776 -1.208658
LeftLeg -2.889650 -0.000000 0.000000
LeftFoot -9.533184 12.639615 -17.231821
LeftToeBase 7.700220 -0.000000 -0.000000
Spine -3.345720 19.111703 -0.692711
RightShoulder 4.784579 -29.521595 -15.683136
RightArm 12.504690 -22.401190 65.099181
RightForeArm 12.774241 -0.000000 45.292911
RightHand 3.094452 -0.000000 -0.710463
RightHandThumb1 -24.326973 -0.000000 -32.862282
LeftShoulder -31.562647 30.615309 7.648222
LeftArm 41.316485 -70.018333 -67.204568
LeftForeArm -47.852140 -0.000000 105.886168
LeftHand -13.328337 0.000000 19.753145
LeftHandThumb1 -26.253704 0.000000 33.147579
Head 21.141067 1.705358 9.018948
3768
root 2.872956 37.037770 3.896111 1.927136 4.140920 3.379634
RightUpLeg 8.851557 -9.831640 -6.085648
RightLeg -4.964973 -0.000000 0.000000
RightFoot -14.543956 -18.002123 17.569629
RightToeBase 13.633689 -0.000000 -0.000000
LeftUpLeg 5.585380 -3.656713 -1.212049
LeftLeg -2.878336 -0.000000 0.000000
LeftFoot -9.548461 12.590451 -17.210873
LeftToeBase 7.913073 -0.000000 -0.000000
Spine -3.226287 19.026983 -0.652804
RightShoulder 4.786655 -29.562425 -15.710094
RightArm 12.614298 -22.572482 65.024793
RightForeArm 12.737916 -0.000000 45.382969
RightHand 3.046880 -0.000000 -0.607343
RightHandThumb1 -24.326973 -0.000000 -32.862282
LeftShoulder -31.401109 30.560098 7.722552
LeftArm 40.083065 -69.795141 -65.705076
LeftForeArm -47.866671 -0.000000 105.564607
LeftHand -13.419937 -0.000000 19.717975
LeftHandThumb1 -26.253704 0.000000 33.147579
Head 21.101978 1.736830 8.975425
3769
root 2.868521 37.037981 3.888169 1.926318 4.292548 3.398857
RightUpLeg 8.861771 -9.873991 -6.083671
RightLeg -4.946925 -0.000000 0.000000
RightFoot -14.582050 -18.113771 17.538101
RightToeBase 13.617881 -0.000000 -0.000000
LeftUpLeg 5.548921 -3.727773 -1.211699
LeftLeg -2.857071 -0.000000 0.000000
LeftFoot -9.498821 12.496995 -17.267586
LeftToeBase 7.810168 -0.000000 -0.000000
Spine -3.121349 18.916104 -0.639631
RightShoulder 4.794366 -29.545432 -15.714775
RightArm 12.703988 -22.793188 64.942996
RightForeArm 12.954453 -0.000000 45.479638
RightHand 3.057494 -0.000000 -0.754481
RightHandThumb1 -24.326973 -0.000000 -32.862282
LeftShoulder -31.247186 30.437238 7.873303
LeftArm 39.123020 -69.600158 -64.609256
LeftForeArm -47.901151 0.000000 105.279728
LeftHand -13.590587 0.000000 19.722968
LeftHandThumb1 -26.253704 0.000000 33.147579
Head 21.033094 1.766487 8.953836
3770
root 2.864788 37.037929 3.880755 1.931843 4.443048 3.417711
RightUpLeg 8.877539 -9.926611 -6.086916
RightLeg -4.945574 -0.000000 0.000000
RightFoot -14.625085 -18.184511 17.581406
RightToeBase 13.605052 -0.000000 -0.000000
LeftUpLeg 5.518138 -3.775177 -1.210967
LeftLeg -2.853194 -0.000000 0.000000
LeftFoot -9.467451 12.416788 -17.211138
LeftToeBase 7.911887 -0.000000 -0.000000
Spine -3.038923 18.797467 -0.623971
RightShoulder 4.820870 -29.546225 -15.730954
RightArm 12.785012 -22.907013 64.874383
RightForeArm 12.687539 -0.000000 45.579250
RightHand 3.045292 -0.000000 -0.578133
RightHandThumb1 -24.326973 -0.000000 -32.862282
LeftShoulder -31.091801 30.330440 8.012261
LeftArm 38.480824 -69.481108 -63.894648
LeftForeArm -48.073055 -0.000000 105.014887
LeftHand -13.779034 -0.000000 19.500171
LeftHandThumb1 -26.253704 0.000000 33.147579
Head 21.015056 1.767419 8.895920
3771
root 2.861165 37.037944 3.874588 1.934164 4.588861 3.428554
RightUpLeg 8.899568 -9.982744 -6.083398
RightLeg -4.947384 -0.000000 0.000000
RightFoot -14.664806 -18.239816 17.611430
RightToeBase 13.637562 -0.000000 -0.000000
LeftUpLeg 5.494295 -3.822482 -1.201379
LeftLeg -2.858823 -0.000000 0.000000
LeftFoot -9.418215 12.340759 -17.156220
LeftToeBase 7.927662 -0.000000 -0.000000
Spine -2.948217 18.673905 -0.594835
RightShoulder 4.805340 -29.583666 -15.729018
RightArm 12.943050 -23.058631 64.757198
RightForeArm 12.702972 -0.000000 45.675513
RightHand 2.985562 -0.000000 -0.316221
RightHandThumb1 -24.326973 -0.000000 -32.862282
LeftShoulder -30.984023 30.227758 8.107678
LeftArm 38.242827 -69.419095 -63.629866
LeftForeArm -48.207867 -0.000000 104.774266
LeftHand -13.709657 0.000000 19.059368
LeftHandThumb1 -26.253704 0.000000 33.147579
Head 20.984590 1.790868 8.862017
